<svg xmlns="http://www.w3.org/2000/svg" viewBox="0 0 1200 630" width="1200" height="630">
  <defs>
    <radialGradient id="glow" cx="82%" cy="14%" r="60%">
      <stop offset="0%" stop-color="#d4a15a" stop-opacity="0.35"/>
      <stop offset="100%" stop-color="#d4a15a" stop-opacity="0"/>
    </radialGradient>
    <clipPath id="scene"><circle cx="32" cy="28" r="15.8"/></clipPath>
  </defs>
  <rect width="1200" height="630" fill="#111111"/>
  <rect width="1200" height="630" fill="url(#glow)"/>

  <!-- emblem -->
  <g transform="translate(120,175) scale(4.4)">
    <circle cx="32" cy="32" r="30" fill="none" stroke="#D4A15A" stroke-width="2.4"/>
    <polygon points="32,1.5 34.4,9 32,12 29.6,9" fill="#D4A15A"/>
    <polygon points="32,62.5 34.4,55 32,52 29.6,55" fill="#D4A15A"/>
    <polygon points="62.5,32 55,34.4 52,32 55,29.6" fill="#D4A15A"/>
    <polygon points="1.5,32 9,34.4 12,32 9,29.6" fill="#D4A15A"/>
    <circle cx="32" cy="28" r="16.5" fill="#111111" stroke="#8A845F" stroke-width="1.2"/>
    <g clip-path="url(#scene)">
      <circle cx="32" cy="26" r="11" fill="#E6D6B8"/>
      <polygon points="30,44 43,29 55,44" fill="#3c4130"/>
      <polygon points="13,44 26,26 38,44" fill="#51563D"/>
      <line x1="19" y1="40" x2="19" y2="27" stroke="#2b2f21" stroke-width="1.6" stroke-linecap="round"/>
      <ellipse cx="19" cy="26" rx="7" ry="2.2" fill="#2b2f21"/>
    </g>
    <g stroke="#D4A15A" stroke-linecap="round">
      <line x1="15" y1="49" x2="49" y2="49" stroke-width="2"/>
      <line x1="22" y1="44" x2="22" y2="54" stroke-width="3"/>
      <line x1="42" y1="44" x2="42" y2="54" stroke-width="3"/>
      <line x1="18" y1="45.5" x2="18" y2="52.5" stroke-width="2.4"/>
      <line x1="46" y1="45.5" x2="46" y2="52.5" stroke-width="2.4"/>
    </g>
  </g>

  <!-- wordmark + copy -->
  <text x="470" y="270" font-family="Arial, Helvetica, sans-serif" font-weight="800" font-size="96" letter-spacing="6" fill="#E6D6B8">SAFARI <tspan fill="#D4A15A">LAB</tspan></text>
  <text x="474" y="322" font-family="Arial, Helvetica, sans-serif" font-weight="600" font-size="30" letter-spacing="10" fill="#8A845F">DISCOVER. TRAIN. EVOLVE.</text>
  <text x="474" y="392" font-family="Arial, Helvetica, sans-serif" font-weight="400" font-size="34" fill="#b9ae93">Free adaptive workout planner &amp; tracker.</text>
  <text x="474" y="436" font-family="Arial, Helvetica, sans-serif" font-weight="400" font-size="34" fill="#b9ae93">No account. Stays on your device.</text>
</svg>
